# xmcd
#
# Track frame offsets:
#	150
#	13800
#	28874
#	46948
#	62548
#	82123
#	102898
#	121948
#	150373
#	164473
#	183147
#
# Disc length: 2599 seconds
#
# Revision: 2
# Processed by: cddbd v1.5.2PL0 Copyright (c) Steve Scherf et al.
# Submitted via: audiograbber 1.83.01
#
DISCID=800a250b
DTITLE=Various Artist - American Folk Blues Festival '62
DYEAR=1962
DGENRE=Blues
TTITLE0=Memphis Slim - T-Bone,Walker - Willi Dixon - Jump Jackson - We're Gonna Ro
TTITLE0=ck
TTITLE1=T-Bone,Walker - Memphis Slim - Willi Dixon - Jump Jackson - I Wanna See My
TTITLE1=Baby
TTITLE2=T-Bone,Walker - Memphis Slim - Willi Dixon - Jump Jackson - I'm In Love
TTITLE3=Sonny Terry - Brownie McGhee - T-Bone,Walker - Willi Dixon - I'm Crazy 'Bo
TTITLE3=ut You Baby
TTITLE4=Memphis Slim - Willi Dixon - Jump Jackson - Stewball
TTITLE5=John Lee Hooker - T-Bone,Walker - Willi Dixon - Jump Jackson - Let's Make 
TTITLE5=It Baby
TTITLE6=John Lee Hooker - T-Bone,Walker - Willi Dixon - Jump Jackson - Shake It Ba
TTITLE6=by
TTITLE7=John Lee Hooker - T-Bone,Walker - Willi Dixon - Jump Jackson - The Right T
TTITLE7=ime
TTITLE8=Shakey Jake - Memphis Slim - T-Bone,Walker - Willi Dixon - Jump Jackson - L
TTITLE8=ove My Ba
TTITLE9=Brownie McGhee - Memphis Slim - Willi Dixon - Jump Jackson - Crying At The
TTITLE9=Station
TTITLE10=Memphis Slim - T-Bone,Walker - Willi Dixon - Jump Jackson - Bye Bye Baby
EXTD=
EXTT0=
EXTT1=
EXTT2=
EXTT3=
EXTT4=
EXTT5=
EXTT6=
EXTT7=
EXTT8=
EXTT9=
EXTT10=
PLAYORDER=
